<svg width="96" height="96" viewBox="0 0 96 96" fill="none" xmlns="http://www.w3.org/2000/svg">
  <defs>
    <linearGradient id="bg-all" x1="14" y1="10" x2="84" y2="86" gradientUnits="userSpaceOnUse">
      <stop stop-color="#DFF1FF"/>
      <stop offset="1" stop-color="#C3E1FF"/>
    </linearGradient>
    <linearGradient id="store-top" x1="30" y1="30" x2="67" y2="44" gradientUnits="userSpaceOnUse">
      <stop stop-color="#FF7B75"/>
      <stop offset="1" stop-color="#E94557"/>
    </linearGradient>
    <linearGradient id="store-body" x1="30" y1="42" x2="67" y2="67" gradientUnits="userSpaceOnUse">
      <stop stop-color="#FEFEFE"/>
      <stop offset="1" stop-color="#DDE8F5"/>
    </linearGradient>
    <linearGradient id="door" x1="45" y1="48" x2="52" y2="67" gradientUnits="userSpaceOnUse">
      <stop stop-color="#70B6FF"/>
      <stop offset="1" stop-color="#3D80C4"/>
    </linearGradient>
    <filter id="shadow-a" x="18" y="18" width="60" height="60" filterUnits="userSpaceOnUse" color-interpolation-filters="sRGB">
      <feDropShadow dx="0" dy="5" stdDeviation="4" flood-color="#4A78A8" flood-opacity="0.24"/>
    </filter>
  </defs>
  <circle cx="48" cy="48" r="38" fill="url(#bg-all)"/>
  <g filter="url(#shadow-a)">
    <path d="M30 36L35 29H61L66 36V42H30V36Z" fill="url(#store-top)"/>
    <rect x="31" y="42" width="34" height="25" rx="4" fill="url(#store-body)"/>
    <rect x="44" y="48" width="8" height="19" rx="2" fill="url(#door)"/>
    <rect x="35" y="49" width="6" height="6" rx="1.5" fill="#85A4C4"/>
    <rect x="55" y="49" width="6" height="6" rx="1.5" fill="#85A4C4"/>
    <path d="M30 42H66" stroke="#D04659" stroke-width="1.8"/>
  </g>
  <ellipse cx="36" cy="30" rx="10" ry="4" fill="white" fill-opacity="0.43" transform="rotate(-18 36 30)"/>
</svg>
