<svg width="96" height="96" viewBox="0 0 96 96" fill="none" xmlns="http://www.w3.org/2000/svg">
  <defs>
    <linearGradient id="bg-baby" x1="12" y1="10" x2="84" y2="86" gradientUnits="userSpaceOnUse">
      <stop stop-color="#FFF2CC"/>
      <stop offset="1" stop-color="#F7D89C"/>
    </linearGradient>
    <radialGradient id="face" cx="0" cy="0" r="1" gradientUnits="userSpaceOnUse" gradientTransform="translate(48 49) rotate(90) scale(22 20)">
      <stop stop-color="#FFE7B6"/>
      <stop offset="1" stop-color="#F4C77E"/>
    </radialGradient>
    <linearGradient id="curl" x1="49" y1="25" x2="58" y2="36" gradientUnits="userSpaceOnUse">
      <stop stop-color="#9D743D"/>
      <stop offset="1" stop-color="#6A4725"/>
    </linearGradient>
    <filter id="shadow-b" x="18" y="16" width="60" height="64" filterUnits="userSpaceOnUse" color-interpolation-filters="sRGB">
      <feDropShadow dx="0" dy="5" stdDeviation="4" flood-color="#A67835" flood-opacity="0.26"/>
    </filter>
  </defs>
  <circle cx="48" cy="48" r="38" fill="url(#bg-baby)"/>
  <g filter="url(#shadow-b)">
    <path d="M54 27C58 27 60 31 58 34C56 36 52 36 51 33C50 30 51 27 54 27Z" fill="url(#curl)"/>
    <circle cx="48" cy="48" r="19" fill="url(#face)"/>
    <circle cx="41.5" cy="47" r="2.4" fill="#6E4C2A"/>
    <circle cx="54.5" cy="47" r="2.4" fill="#6E4C2A"/>
    <path d="M42.5 56C44 58 46.2 59 48.5 59C50.8 59 53 58 54.5 56" stroke="#C6794F" stroke-width="2.6" stroke-linecap="round"/>
    <path d="M37 39C39.5 36.5 43.5 35 48 35C52.5 35 56.5 36.5 59 39" stroke="#F6D59A" stroke-width="2" stroke-linecap="round" opacity="0.85"/>
  </g>
  <ellipse cx="35" cy="31" rx="9" ry="4" fill="white" fill-opacity="0.4" transform="rotate(-16 35 31)"/>
</svg>
