<svg width="96" height="96" viewBox="0 0 96 96" fill="none" xmlns="http://www.w3.org/2000/svg">
  <defs>
    <linearGradient id="bg-cos" x1="15" y1="11" x2="81" y2="85" gradientUnits="userSpaceOnUse">
      <stop stop-color="#F7ECFF"/>
      <stop offset="1" stop-color="#E7D7FF"/>
    </linearGradient>
    <linearGradient id="spark" x1="40" y1="26" x2="59" y2="64" gradientUnits="userSpaceOnUse">
      <stop stop-color="#FFD95D"/>
      <stop offset="1" stop-color="#E9A90D"/>
    </linearGradient>
    <linearGradient id="spark2" x1="21" y1="46" x2="36" y2="71" gradientUnits="userSpaceOnUse">
      <stop stop-color="#FFECA2"/>
      <stop offset="1" stop-color="#F1BA33"/>
    </linearGradient>
    <filter id="shadow-c" x="16" y="16" width="64" height="64" filterUnits="userSpaceOnUse" color-interpolation-filters="sRGB">
      <feDropShadow dx="0" dy="5" stdDeviation="4" flood-color="#8265CC" flood-opacity="0.26"/>
    </filter>
  </defs>
  <circle cx="48" cy="48" r="38" fill="url(#bg-cos)"/>
  <g filter="url(#shadow-c)">
    <path d="M48 27L53.7 42.3L69 48L53.7 53.7L48 69L42.3 53.7L27 48L42.3 42.3L48 27Z" fill="url(#spark)"/>
    <path d="M31 40L33.8 47.2L41 50L33.8 52.8L31 60L28.2 52.8L21 50L28.2 47.2L31 40Z" fill="url(#spark2)"/>
    <path d="M64 35L65.6 39.4L70 41L65.6 42.6L64 47L62.4 42.6L58 41L62.4 39.4L64 35Z" fill="#FFD873"/>
  </g>
  <ellipse cx="37" cy="29" rx="11" ry="4" fill="white" fill-opacity="0.42" transform="rotate(-20 37 29)"/>
</svg>
